<svg width="512" height="512" viewBox="0 0 512 512" fill="none" xmlns="http://www.w3.org/2000/svg">
<rect width="512" height="512" fill="#18191B"/>
<path d="M274.368 432C258.837 435.243 243.477 436.523 228.288 435.84C213.269 435.157 199.787 431.915 187.84 426.112C176.064 420.309 167.104 411.264 160.96 398.976C156.011 388.736 153.28 378.411 152.768 368C152.427 357.419 152.256 345.387 152.256 331.904V78.72H189.632V330.368C189.632 341.973 189.717 351.701 189.888 359.552C190.229 367.232 192.021 374.059 195.264 380.032C201.408 391.467 211.136 398.293 224.448 400.512C237.931 402.731 254.571 402.219 274.368 398.976V432ZM93.12 187.776V155.52H274.368V187.776H93.12Z" fill="white"/>
<path d="M336.008 432V388.224H379.784V432H336.008Z" fill="#96D969"/>
</svg>
